<svg width="48" height="47" viewBox="0 0 48 47" fill="none" xmlns="http://www.w3.org/2000/svg">
<g clip-path="url(#clip0_11_232)">
<path fill-rule="evenodd" clip-rule="evenodd" d="M24.0199 0C10.7375 0 0 10.5913 0 23.6942C0 34.168 6.87988 43.0339 16.4241 46.1718C17.6174 46.4077 18.0545 45.662 18.0545 45.0347C18.0545 44.4854 18.0151 42.6026 18.0151 40.6408C11.3334 42.0533 9.94198 37.8163 9.94198 37.8163C8.86818 35.0702 7.27715 34.3645 7.27715 34.3645C5.09022 32.913 7.43645 32.913 7.43645 32.913C9.86233 33.0699 11.1353 35.3451 11.1353 35.3451C13.2824 38.9539 16.7422 37.9342 18.1341 37.3064C18.3328 35.7765 18.9695 34.7173 19.6455 34.129C14.3163 33.5797 8.70937 31.54 8.70937 22.4387C8.70937 19.8496 9.66321 17.7313 11.1746 16.0839C10.9361 15.4956 10.1008 13.0629 11.4135 9.80707C11.4135 9.80707 13.4417 9.17929 18.0146 12.2392C19.9725 11.7206 21.9916 11.4567 24.0199 11.4545C26.048 11.4545 28.1154 11.7294 30.0246 12.2392C34.5981 9.17929 36.6262 9.80707 36.6262 9.80707C37.9389 13.0629 37.1031 15.4956 36.8646 16.0839C38.4158 17.7313 39.3303 19.8496 39.3303 22.4387C39.3303 31.54 33.7234 33.5403 28.3544 34.129C29.2296 34.8743 29.9848 36.2863 29.9848 38.5225C29.9848 41.6999 29.9454 44.25 29.9454 45.0342C29.9454 45.662 30.383 46.4077 31.5758 46.1723C41.12 43.0334 47.9999 34.168 47.9999 23.6942C48.0392 10.5913 37.2624 0 24.0199 0Z" fill="#24292F"/>
</g>
<defs>
<clipPath id="clip0_11_232">
<rect width="48" height="47" fill="white"/>
</clipPath>
</defs>
</svg>
